<?xml version="1.0" encoding="utf-8"?>
<!-- Generator: Adobe Illustrator 22.1.0, SVG Export Plug-In . SVG Version: 6.00 Build 0)  -->
<svg version="1.1" id="Capa_1" xmlns="http://www.w3.org/2000/svg" xmlns:xlink="http://www.w3.org/1999/xlink" x="0px" y="0px"
	 viewBox="0 0 384.5 384.5" style="enable-background:new 0 0 384.5 384.5;" xml:space="preserve">
<style type="text/css">
	.st0{fill:#FFFFFF;}
</style>
<g>
	<path class="st0" d="M374.5,26.4h-13.2h-338H10c-5.5,0-10,4.5-10,10s4.5,10,10,10h3.2v179.7c0,5.5,4.5,10,10,10h31v117
		c0,2.8,2.2,5,5,5h41.3c2.8,0,5-2.2,5-5v-117h173.3v117c0,2.8,2.2,5,5,5h41.3c2.8,0,5-2.2,5-5v-117h31c5.5,0,10-4.5,10-10V46.4h3.2
		c5.5,0,10-4.5,10-10C384.5,30.9,380,26.4,374.5,26.4z M351.2,216.1h-318V46.4h45v6.9h-7.3c-5.5,0-10,4.5-10,10s4.5,10,10,10h34.7
		c5.5,0,10-4.5,10-10s-4.5-10-10-10h-7.3v-6.9h84v6.9h-7.3c-5.5,0-10,4.5-10,10s4.5,10,10,10h34.7c5.5,0,10-4.5,10-10s-4.5-10-10-10
		h-7.3v-6.9h84v6.9h-7.3c-5.5,0-10,4.5-10,10s4.5,10,10,10h34.7c5.5,0,10-4.5,10-10s-4.5-10-10-10h-7.3v-6.9h45L351.2,216.1
		L351.2,216.1z"/>
	<g>
		<path class="st0" d="M167.1,112.8c-0.5-1.4-1.8-2.3-3.3-2.3c0,0,0,0,0,0l-5.9,0c-1.5,0-2.8,0.9-3.3,2.3l-20.5,55.1
			c-0.4,1.1-0.2,2.3,0.4,3.2c0.7,0.9,1.7,1.5,2.9,1.5h5.3c1.5,0,2.8-0.9,3.3-2.3l6.1-16.3h17.7l6.1,16.3c0.5,1.4,1.8,2.3,3.3,2.3
			h5.3c0,0,0,0,0,0c1.9,0,3.5-1.6,3.5-3.5c0-0.6-0.1-1.1-0.4-1.6L167.1,112.8z M156.6,142.1l4.3-11.7l4.4,11.7H156.6z"/>
		<path class="st0" d="M218.9,110.3h-22.2c-1.9,0-3.5,1.6-3.5,3.5v55c0,1.9,1.6,3.5,3.5,3.5h22.2c17.4,0,31.6-13.9,31.6-31
			C250.5,124.3,236.3,110.3,218.9,110.3z M218.9,160.3h-13.7v-38h13.7c10.8,0,19.6,8.5,19.6,19C238.5,151.8,229.7,160.3,218.9,160.3
			z"/>
	</g>
</g>
</svg>
