<?xml version="1.0" encoding="utf-8"?>
<!-- Generator: Adobe Illustrator 22.1.0, SVG Export Plug-In . SVG Version: 6.00 Build 0)  -->
<svg version="1.1" id="Layer_1" xmlns="http://www.w3.org/2000/svg" xmlns:xlink="http://www.w3.org/1999/xlink" x="0px" y="0px"
	 viewBox="0 0 455 455" style="enable-background:new 0 0 455 455;" xml:space="preserve">
<style type="text/css">
	.st0{fill:#3DB4A9;}
</style>
<g>
	<path class="st0" d="M153.4,290.5h68.2l18.4,61.1h57.9L224,113.3h-70.6L80.5,351.6h55.9L153.4,290.5z M186.2,153.5h0.7
		c3.5,14.3,27,96.5,27,96.5h-52.8C161.1,250.1,182.7,167.8,186.2,153.5z"/>
	<path class="st0" d="M345.5,157.5c17.8,0,29-12.1,29-26.9c-0.4-15.6-11.2-27.2-28.6-27.2c-17.4,0-28.7,11.7-28.4,27.2
		C317.2,145.4,328.6,157.5,345.5,157.5z"/>
	<polygon class="st0" points="319,351.6 372.8,351.6 372.8,351.6 372.8,178.8 319,178.8 	"/>
</g>
</svg>
