<?xml version="1.0" encoding="utf-8"?>
<!-- Generator: Adobe Illustrator 22.1.0, SVG Export Plug-In . SVG Version: 6.00 Build 0)  -->
<svg version="1.1" id="Capa_1" xmlns="http://www.w3.org/2000/svg" xmlns:xlink="http://www.w3.org/1999/xlink" x="0px" y="0px"
	 viewBox="0 0 17.5 17.5" style="enable-background:new 0 0 17.5 17.5;" xml:space="preserve">
<style type="text/css">
	.st0{fill:#3DB4A9;}
</style>
<g>
	<path class="st0" d="M5,9.6c0.2,0,0.5,0,0.7,0c1.3,0,2.4-0.3,3.1-1c0.6-0.5,0.9-1.3,0.9-2.3c0-0.9-0.4-1.7-1-2.2
		C8.1,3.6,7.2,3.3,5.8,3.3c-1.3,0-2.3,0.1-2.9,0.2V13H5V9.6z M5,5.1C5.2,5,5.5,5,5.9,5C7,5,7.6,5.5,7.6,6.4c0,1-0.7,1.6-1.9,1.6
		C5.4,8,5.2,8,5,7.9V5.1z"/>
	<path class="st0" d="M12.1,11.7c-0.6,0-1.5-0.3-1.9-0.5l-0.4,1.6c0.5,0.3,1.3,0.5,2.3,0.5c2,0,3-1,3-2.3c0-1-0.6-1.7-1.9-2.2
		c-0.9-0.3-1.1-0.5-1.1-0.8c0-0.4,0.3-0.6,0.8-0.6c0.6,0,1.2,0.2,1.5,0.4l0.4-1.5c-0.4-0.2-1.2-0.4-2-0.4c-1.7,0-2.8,1-2.8,2.3
		c0,0.8,0.5,1.6,2,2.1c0.8,0.3,1,0.4,1,0.8C13.1,11.4,12.8,11.7,12.1,11.7z"/>
</g>
</svg>
