<?xml version="1.0" encoding="utf-8"?>
<!-- Generator: Adobe Illustrator 22.1.0, SVG Export Plug-In . SVG Version: 6.00 Build 0)  -->
<svg version="1.1" id="Capa_1" xmlns="http://www.w3.org/2000/svg" xmlns:xlink="http://www.w3.org/1999/xlink" x="0px" y="0px"
	 viewBox="0 0 60 60" style="enable-background:new 0 0 60 60;" xml:space="preserve">
<style type="text/css">
	.st0{fill:#3DB4A9;}
	.st1{fill:none;}
</style>
<g>
	<path class="st0" d="M42.2,43.9C42.2,43.9,42.2,44,42.2,43.9C42.1,44,42,44.1,42,44.2c-0.4,1.1-1.4,1.8-2.5,1.8s-2.1-0.7-2.5-1.8
		c0-0.1-0.1-0.2-0.2-0.3c0,0,0,0,0,0c-0.1,0-0.2-0.1-0.2-0.1c0,0,0,0,0,0v7.8l3-3l3,3v-7.7c0,0,0,0,0,0
		C42.4,43.9,42.3,43.9,42.2,43.9z"/>
	<path class="st0" d="M46.1,36.4c-0.7-0.2-1.3-0.8-1.6-1.5c-0.3-0.7-0.3-1.5,0.1-2.1c0.1-0.3,0.1-0.5,0-0.6
		c-0.2-0.3-0.5-0.4-0.8-0.2c-0.4,0.2-0.7,0.3-1.1,0.3c-1.1,0-2.1-0.7-2.5-1.8C40,30,39.6,30,39.5,30s-0.5,0-0.6,0.4
		c-0.4,1-1.4,1.8-2.5,1.8c-0.4,0-0.8-0.1-1.1-0.3c-0.3-0.1-0.6,0-0.8,0.2c-0.1,0.1-0.2,0.3,0,0.6c0.3,0.7,0.3,1.5,0.1,2.1
		c-0.3,0.7-0.9,1.2-1.6,1.5c-0.4,0.1-0.4,0.5-0.4,0.6s0,0.5,0.4,0.6c0.7,0.2,1.3,0.8,1.6,1.5c0.3,0.7,0.3,1.5-0.1,2.1
		c-0.1,0.3-0.1,0.5,0,0.6c0.1,0.2,0.4,0.3,0.7,0.3l0.2-0.1c0.3-0.1,0.7-0.2,1.1-0.2c1.1,0,2.1,0.7,2.5,1.8C39,44,39.4,44,39.5,44
		s0.5,0,0.6-0.4c0.4-1.1,1.4-1.8,2.5-1.8c0.2,0,0.4,0,0.6,0.1c0.1,0,0.1,0,0.2,0.1c0.1,0,0.2,0.1,0.3,0.1l0.2,0.1
		c0.3,0,0.5-0.1,0.7-0.3c0.1-0.1,0.2-0.3,0-0.6c-0.3-0.7-0.3-1.5-0.1-2.1c0.3-0.7,0.9-1.2,1.6-1.5c0.4-0.1,0.4-0.5,0.4-0.6
		S46.5,36.5,46.1,36.4z"/>
</g>
<g>
	<path class="st1" d="M16.5,25h5c0.6,0,1-0.4,1-1s-0.4-1-1-1h-5c-0.6,0-1,0.4-1,1S15.9,25,16.5,25z"/>
	<path class="st1" d="M28.5,31h-7c-0.6,0-1,0.4-1,1s0.4,1,1,1h7c0.6,0,1-0.4,1-1S29.1,31,28.5,31z"/>
	<path class="st1" d="M16.5,33c0.3,0,0.5-0.1,0.7-0.3c0.2-0.2,0.3-0.5,0.3-0.7c0-0.3-0.1-0.5-0.3-0.7c-0.4-0.4-1-0.4-1.4,0
		c-0.2,0.2-0.3,0.4-0.3,0.7c0,0.3,0.1,0.5,0.3,0.7C16,32.9,16.2,33,16.5,33z"/>
	<path class="st1" d="M16.5,17h9c0.6,0,1-0.4,1-1s-0.4-1-1-1h-9c-0.6,0-1,0.4-1,1S15.9,17,16.5,17z"/>
	<path class="st1" d="M25.8,23.3c-0.2,0.2-0.3,0.4-0.3,0.7c0,0.3,0.1,0.5,0.3,0.7c0.2,0.2,0.5,0.3,0.7,0.3s0.5-0.1,0.7-0.3
		c0.2-0.2,0.3-0.4,0.3-0.7c0-0.3-0.1-0.5-0.3-0.7C26.8,22.9,26.2,22.9,25.8,23.3z"/>
	<path class="st1" d="M31.5,25h7c0.6,0,1-0.4,1-1s-0.4-1-1-1h-7c-0.6,0-1,0.4-1,1S30.9,25,31.5,25z"/>
	<polygon class="st1" points="36.5,15 50.5,15 36.5,1 	"/>
	<path class="st1" d="M43.5,25c0.3,0,0.5-0.1,0.7-0.3c0.2-0.2,0.3-0.5,0.3-0.7c0-0.3-0.1-0.5-0.3-0.7c-0.4-0.4-1-0.4-1.4,0
		c-0.2,0.2-0.3,0.4-0.3,0.7c0,0.3,0.1,0.5,0.3,0.7C43,24.9,43.2,25,43.5,25z"/>
	<path class="st1" d="M46.7,34.5c-0.2-0.1-0.3-0.3-0.4-0.4c0-0.1-0.1-0.3,0-0.5c0.4-0.8,0.3-1.8-0.1-2.5c-0.7-1.1-2.2-1.6-3.4-1
		c-0.3,0.1-0.7,0.1-0.9-0.4c-0.4-1.1-1.4-1.8-2.5-1.8s-2.1,0.7-2.5,1.8c-0.1,0.4-0.6,0.5-0.9,0.4c-1.2-0.6-2.7-0.1-3.4,1
		c-0.5,0.8-0.5,1.7-0.1,2.5c0.1,0.2,0.1,0.4,0,0.5c0,0.1-0.1,0.3-0.4,0.4c-1.1,0.4-1.8,1.4-1.8,2.5s0.7,2.1,1.8,2.5
		c0.2,0.1,0.3,0.3,0.4,0.4c0,0.1,0.1,0.3,0,0.5c-0.4,0.8-0.3,1.8,0.1,2.5c0.4,0.6,1,1,1.7,1.2v12.3l5-5l5,5V44.1
		c0.7-0.1,1.3-0.5,1.7-1.2c0.5-0.8,0.5-1.7,0.1-2.5c-0.1-0.2-0.1-0.4,0-0.5c0-0.1,0.1-0.3,0.4-0.4c1.1-0.4,1.8-1.4,1.8-2.5
		S47.8,34.9,46.7,34.5z"/>
	<path class="st0" d="M38.9,0H6.5v60h47V14.6L38.9,0z M31.5,23h7c0.6,0,1,0.4,1,1s-0.4,1-1,1h-7c-0.6,0-1-0.4-1-1S30.9,23,31.5,23z
		 M27.5,24c0,0.3-0.1,0.5-0.3,0.7C27,24.9,26.8,25,26.5,25s-0.5-0.1-0.7-0.3c-0.2-0.2-0.3-0.5-0.3-0.7c0-0.3,0.1-0.5,0.3-0.7
		c0.4-0.4,1-0.4,1.4,0C27.4,23.5,27.5,23.7,27.5,24z M16.5,15h9c0.6,0,1,0.4,1,1s-0.4,1-1,1h-9c-0.6,0-1-0.4-1-1S15.9,15,16.5,15z
		 M16.5,23h5c0.6,0,1,0.4,1,1s-0.4,1-1,1h-5c-0.6,0-1-0.4-1-1S15.9,23,16.5,23z M15.8,31.3c0.4-0.4,1-0.4,1.4,0
		c0.2,0.2,0.3,0.4,0.3,0.7c0,0.3-0.1,0.5-0.3,0.7C17,32.9,16.8,33,16.5,33s-0.5-0.1-0.7-0.3c-0.2-0.2-0.3-0.5-0.3-0.7
		C15.5,31.7,15.6,31.5,15.8,31.3z M24.9,44.2h-8.4c-0.6,0-1-0.4-1-1c0-0.6,0.4-1,1-1h8.4c0.6,0,1,0.4,1,1
		C25.9,43.8,25.5,44.2,24.9,44.2z M28.5,33h-7c-0.6,0-1-0.4-1-1s0.4-1,1-1h7c0.6,0,1,0.4,1,1S29.1,33,28.5,33z M46.7,39.5
		c-0.2,0.1-0.3,0.3-0.4,0.4c0,0.1-0.1,0.3,0,0.5c0.4,0.8,0.3,1.8-0.1,2.5c-0.4,0.6-1,1-1.7,1.2v12.3l-5-5l-5,5V44.1
		c-0.7-0.1-1.3-0.5-1.7-1.2c-0.5-0.8-0.5-1.7-0.1-2.5c0.1-0.2,0.1-0.4,0-0.5c0-0.1-0.1-0.3-0.4-0.4c-1.1-0.4-1.8-1.4-1.8-2.5
		s0.7-2.1,1.8-2.5c0.2-0.1,0.3-0.3,0.4-0.4c0-0.1,0.1-0.3,0-0.5c-0.4-0.8-0.3-1.8,0.1-2.5c0.7-1.1,2.2-1.6,3.4-1
		c0.3,0.1,0.7,0.1,0.9-0.4c0.4-1.1,1.4-1.8,2.5-1.8s2.1,0.7,2.5,1.8c0.1,0.4,0.6,0.5,0.9,0.4c1.2-0.6,2.7-0.1,3.4,1
		c0.5,0.8,0.5,1.7,0.1,2.5c-0.1,0.2-0.1,0.4,0,0.5c0,0.1,0.1,0.3,0.4,0.4c1.1,0.4,1.8,1.4,1.8,2.5S47.8,39.1,46.7,39.5z M42.5,24
		c0-0.3,0.1-0.5,0.3-0.7c0.4-0.4,1-0.4,1.4,0c0.2,0.2,0.3,0.4,0.3,0.7c0,0.3-0.1,0.5-0.3,0.7C44,24.9,43.8,25,43.5,25
		s-0.5-0.1-0.7-0.3C42.6,24.5,42.5,24.3,42.5,24z M36.5,15V1l14,14H36.5z"/>
</g>
</svg>
