<?xml version="1.0" encoding="utf-8"?>
<!-- Generator: Adobe Illustrator 22.1.0, SVG Export Plug-In . SVG Version: 6.00 Build 0)  -->
<svg version="1.1" id="Capa_1" xmlns="http://www.w3.org/2000/svg" xmlns:xlink="http://www.w3.org/1999/xlink" x="0px" y="0px"
	 viewBox="0 0 420.6 420.6" style="enable-background:new 0 0 420.6 420.6;" xml:space="preserve">
<style type="text/css">
	.st0{fill:#3DB4A9;}
</style>
<g>
	<g>
		<path class="st0" d="M350,275c-3.4-8.1-11.5-13.3-19.3-16.4l-25.9-11.9c0-19-0.2-113.5-0.1-123.4c0.2-15.5-1.7-29.3-5.8-41.2
			l32.2-11.6l0.1,29.7l-2.2,0c-1.5-0.1-2.9,1-3,2.5l-2.8,24.6c-0.1,0.7,0.1,1.5,0.6,2.1c0.5,0.6,1.2,1,1.9,1l22.5,0
			c0.8-0.1,1.4-0.4,1.9-1c0.5-0.6,0.7-1.3,0.6-2.1c-0.6-4.8-1.1-9.6-1.7-14.5l-1.2-10.1c-0.2-1.5-1.5-2.6-3-2.5l-2.2,0l0-33.9
			l1.1-0.4l3.8-1.4c3.2-1.2,5.4-4.2,5.4-7.7c0-3.4-2.1-6.5-5.4-7.7L213.1,0.5c-1.8-0.6-3.7-0.6-5.5,0L72.9,49.1
			c-3.2,1.2-5.4,4.2-5.4,7.7s2.1,6.5,5.4,7.7l48.8,17.6c-4.3,12.3-6.2,26.4-6,42.3l0,122.3l-25.9,11.9c-7.8,3.2-15.4,8-19.3,16.4
			c0,0-57,145.6-26.1,145.6h331.6C407,420.6,350,275,350,275z M262.1,262.5c0,0-43.4,14.4-51.7,64.9c0,0.1-0.1,0.1-0.1,0
			c-8.4-50.5-51.7-64.9-51.7-64.9l28.4-28.2c-40.1-18-50.8-79.1-50.8-79.1c-2.3-8.8-2.5-14.9-2.5-14.9c20.1-1.4,90.1-7.4,94.9-30.1
			c6.6,12.2,41.6,42.9,55.7,45.2c0,0-13.7,60.5-51.2,78.9L262.1,262.5z"/>
	</g>
</g>
</svg>
