<?xml version="1.0" encoding="utf-8"?>
<!-- Generator: Adobe Illustrator 22.1.0, SVG Export Plug-In . SVG Version: 6.00 Build 0)  -->
<svg version="1.1" id="Capa_1" xmlns="http://www.w3.org/2000/svg" xmlns:xlink="http://www.w3.org/1999/xlink" x="0px" y="0px"
	 viewBox="0 0 420.6 420.6" style="enable-background:new 0 0 420.6 420.6;" xml:space="preserve">
<style type="text/css">
	.st0{fill:#3DB4A9;}
</style>
<g>
	<path class="st0" d="M130,58.2h65.6c35.5,0,61.1,3.3,76.8,9.8c15.7,6.6,28.1,17.2,37.1,31.8c9.1,14.7,13.6,32.2,13.6,52.7
		c0,22.7-5.9,41.5-17.8,56.5c-11.9,15-27.9,25.5-48.3,31.4c-11.9,3.4-33.7,5.1-65.2,5.1v137.6H130V58.2z M191.9,185.2h19.7
		c15.5,0,26.2-1.1,32.3-3.3c6-2.2,10.8-5.9,14.2-11c3.5-5.1,5.2-11.3,5.2-18.5c0-12.6-4.9-21.7-14.6-27.5
		c-7.1-4.3-20.2-6.4-39.3-6.4h-17.5V185.2z"/>
</g>
<g>
	<g>
		<path class="st0" d="M294.1,347.9c0,6.4-1.6,12.3-4.8,17.8c-3.2,5.5-7.6,9.9-13.1,13c-5.5,3.2-11.5,4.8-17.9,4.8
			c-6.4,0-12.4-1.6-17.9-4.8c-5.5-3.2-9.9-7.5-13.1-13c-3.2-5.5-4.8-11.5-4.8-17.9c0-6.4,1.6-12.3,4.8-17.9
			c3.2-5.5,7.6-9.9,13.1-13.1c5.5-3.2,11.5-4.8,17.9-4.8c6.4,0,12.4,1.6,17.9,4.8c5.5,3.2,9.9,7.6,13.1,13.1
			C292.5,335.5,294.1,341.4,294.1,347.9z M286.7,347.9c0-7.9-2.8-14.6-8.3-20.2c-5.5-5.5-12.2-8.3-20-8.3c-7.9,0-14.6,2.8-20.2,8.3
			c-5.6,5.5-8.3,12.2-8.3,20c0,5.1,1.3,9.7,3.8,14.1c2.5,4.3,6,7.8,10.4,10.3c4.4,2.5,9.2,3.8,14.3,3.8c5.1,0,9.8-1.3,14.2-3.8
			c4.4-2.5,7.9-5.9,10.4-10.2C285.5,357.5,286.7,352.9,286.7,347.9z M243.5,328.3h17.4c3.6,0,6.3,0.4,8,1.2c1.7,0.8,3.1,2.1,4.1,3.8
			c1,1.7,1.6,3.9,1.6,6.3c0,2.1-0.3,3.8-1,5.1c-0.6,1.3-1.8,2.6-3.6,3.9c1.4,0.8,2.4,1.7,2.9,2.7c0.5,1,0.9,2.8,1,5.4
			c0.2,4.9,0.4,7.7,0.6,8.5c0.2,0.8,0.8,1.6,1.7,2.3h-9.8c-0.4-1.1-0.7-1.9-0.8-2.7c-0.1-0.7-0.2-1.9-0.2-3.7
			c-0.1-3.5-0.3-5.6-0.6-6.4c-0.3-0.8-0.8-1.4-1.5-1.8c-0.7-0.4-2.1-0.6-4.2-0.6h-7v15.2h-8.6V328.3z M252.1,335.8v9.3h7.2
			c2.8,0,4.6-0.4,5.5-1.1c0.9-0.7,1.4-1.9,1.4-3.6c0-1.7-0.4-2.8-1.3-3.5c-0.9-0.7-2.7-1.1-5.5-1.1H252.1z"/>
	</g>
</g>
</svg>
