<?xml version="1.0" encoding="utf-8"?>
<!-- Generator: Adobe Illustrator 22.1.0, SVG Export Plug-In . SVG Version: 6.00 Build 0)  -->
<svg version="1.1" xmlns="http://www.w3.org/2000/svg" xmlns:xlink="http://www.w3.org/1999/xlink" x="0px" y="0px"
	 viewBox="0 0 500 500" style="enable-background:new 0 0 500 500;" xml:space="preserve">
<style type="text/css">
	.st0{fill:none;stroke:#FFFFFF;stroke-width:11;stroke-linecap:round;stroke-linejoin:round;stroke-miterlimit:10;}
	.st1{fill:#FFFFFF;}
</style>
<g id="Capa_1">
</g>
<g id="Capa_2">
	<path class="st0" d="M362.4,267.5V106.8c0-6.2-5-11.3-11.3-11.3H173.8c-6.2,0-11.3,5-11.3,11.3V250"/>
	<circle class="st0" cx="129.2" cy="311.6" r="14.8"/>
	<circle class="st0" cx="215.5" cy="149.5" r="14.8"/>
	<line class="st0" x1="277.2" y1="134.7" x2="316" y2="134.7"/>
	<line class="st0" x1="200.7" y1="201.3" x2="239.5" y2="201.3"/>
	<line class="st0" x1="200.7" y1="230.3" x2="269.3" y2="230.3"/>
	<line class="st0" x1="286.6" y1="230.3" x2="325.3" y2="230.3"/>
	<line class="st0" x1="200.7" y1="249.2" x2="239.5" y2="249.2"/>
	<line class="st0" x1="257.3" y1="249.2" x2="317.8" y2="249.2"/>
	<line class="st0" x1="285.3" y1="268.2" x2="325.3" y2="268.2"/>
	<line class="st0" x1="285.3" y1="287.3" x2="297.5" y2="287.3"/>
	<line class="st0" x1="285.3" y1="306.3" x2="297.5" y2="306.3"/>
	<line class="st0" x1="285.3" y1="372.7" x2="297.5" y2="372.7"/>
	<line class="st0" x1="275.7" y1="153.4" x2="325.3" y2="153.4"/>
	<path class="st0" d="M255.7,372.7H100.3c-6.3,0-11.3-5.1-11.3-11.3v-79.7c0-6.3,5.1-11.3,11.3-11.3h155.3c6.3,0,11.3,5.1,11.3,11.3
		v79.7C267,367.6,261.9,372.7,255.7,372.7z"/>
	<line class="st0" x1="171" y1="296.7" x2="202.3" y2="296.7"/>
	<line class="st0" x1="171" y1="316.8" x2="213.3" y2="316.8"/>
	<line class="st0" x1="171" y1="344.3" x2="241.5" y2="344.3"/>
	<path class="st0" d="M353.9,376h-29.5c-5.5,0-9.9-4.4-9.9-9.9v-69c0-5.5,4.4-9.9,9.9-9.9h29.5c5.5,0,9.9,4.4,9.9,9.9v69
		C363.8,371.6,359.3,376,353.9,376z"/>
	<circle class="st1" cx="339.5" cy="329.8" r="9.8"/>
</g>
</svg>
