<?xml version="1.0" encoding="utf-8"?>
<!-- Generator: Adobe Illustrator 22.1.0, SVG Export Plug-In . SVG Version: 6.00 Build 0)  -->
<svg version="1.1" id="Layer_1" xmlns="http://www.w3.org/2000/svg" xmlns:xlink="http://www.w3.org/1999/xlink" x="0px" y="0px"
	 viewBox="0 0 841.9 595.3" style="enable-background:new 0 0 841.9 595.3;" xml:space="preserve">
<style type="text/css">
	.st0{clip-path:url(#SVGID_2_);fill:#FFFFFF;}
</style>
<g>
	<g>
		<defs>
			<rect id="SVGID_1_" x="281" y="158.3" width="278.9" height="279.8"/>
		</defs>
		<clipPath id="SVGID_2_">
			<use xlink:href="#SVGID_1_"  style="overflow:visible;"/>
		</clipPath>
		<path class="st0" d="M553.2,378.8l-43-43c-8.6-8.5-22.7-8.3-31.6,0.6L456.9,358c-1.4-0.8-2.8-1.5-4.3-2.4
			c-13.7-7.6-32.4-18-52.1-37.7c-19.8-19.8-30.2-38.5-37.8-52.2c-0.8-1.4-1.6-2.8-2.3-4.2L375,247l7.1-7.2
			c8.9-8.9,9.1-23.1,0.6-31.6l-43-43c-8.5-8.5-22.7-8.3-31.6,0.6L296,178l0.3,0.3c-4.1,5.2-7.5,11.2-10,17.6
			c-2.3,6.1-3.8,12-4.4,17.9c-5.7,47.1,15.8,90.1,74.2,148.5c80.7,80.7,145.7,74.6,148.5,74.3c6.1-0.7,12-2.2,17.9-4.5
			c6.4-2.5,12.4-5.9,17.6-9.9l0.3,0.2l12.3-12C561.5,401.5,561.8,387.3,553.2,378.8L553.2,378.8z M553.2,378.8"/>
	</g>
</g>
</svg>
