<?xml version="1.0" encoding="utf-8"?>
<!-- Generator: Adobe Illustrator 22.1.0, SVG Export Plug-In . SVG Version: 6.00 Build 0)  -->
<svg version="1.1" id="Layer_1" xmlns="http://www.w3.org/2000/svg" xmlns:xlink="http://www.w3.org/1999/xlink" x="0px" y="0px"
	 viewBox="0 0 841.9 595.3" style="enable-background:new 0 0 841.9 595.3;" xml:space="preserve">
<style type="text/css">
	.st0{fill:#FFFFFF;}
</style>
<g>
	<path class="st0" d="M386.5,241.9v111.2c0,13-10.1,23.6-22.6,23.6h-2.3c-12.4,0-22.6-10.6-22.6-23.6V241.9
		c0-13,10.1-23.6,22.6-23.6h2.3C376.3,218.3,386.5,228.9,386.5,241.9L386.5,241.9z M501.9,249v95.6c0,10.2-8.3,18.6-18.6,18.6h-84.8
		c-2.2,0-4-1.8-4-4V235.9c0-2.2,1.8-4,4-4h86.2C494.2,231.9,501.9,239.6,501.9,249L501.9,249z M427.5,336.6c0-2.8-2.3-5.1-5.1-5.1
		c-2.8,0-5.1,2.3-5.1,5.1c0,2.8,2.3,5.1,5.1,5.1C425.2,341.7,427.5,339.5,427.5,336.6L427.5,336.6z M427.5,313.6
		c0-2.8-2.3-5.1-5.1-5.1c-2.8,0-5.1,2.3-5.1,5.1c0,2.8,2.3,5.1,5.1,5.1C425.2,318.8,427.5,316.5,427.5,313.6L427.5,313.6z
		 M427.5,290.6c0-2.8-2.3-5.1-5.1-5.1c-2.8,0-5.1,2.3-5.1,5.1c0,2.8,2.3,5.1,5.1,5.1C425.2,295.8,427.5,293.5,427.5,290.6
		L427.5,290.6z M453.4,336.6c0-2.8-2.3-5.1-5.1-5.1c-2.8,0-5.1,2.3-5.1,5.1c0,2.8,2.3,5.1,5.1,5.1
		C451.1,341.7,453.4,339.5,453.4,336.6L453.4,336.6z M453.4,313.6c0-2.8-2.3-5.1-5.1-5.1c-2.8,0-5.1,2.3-5.1,5.1
		c0,2.8,2.3,5.1,5.1,5.1C451.1,318.8,453.4,316.5,453.4,313.6L453.4,313.6z M453.4,290.6c0-2.8-2.3-5.1-5.1-5.1
		c-2.8,0-5.1,2.3-5.1,5.1c0,2.8,2.3,5.1,5.1,5.1C451.1,295.8,453.4,293.5,453.4,290.6L453.4,290.6z M479.3,336.6
		c0-2.8-2.3-5.1-5.1-5.1c-2.8,0-5.1,2.3-5.1,5.1c0,2.8,2.3,5.1,5.1,5.1C477,341.7,479.3,339.5,479.3,336.6L479.3,336.6z
		 M479.3,313.6c0-2.8-2.3-5.1-5.1-5.1c-2.8,0-5.1,2.3-5.1,5.1c0,2.8,2.3,5.1,5.1,5.1C477,318.8,479.3,316.5,479.3,313.6L479.3,313.6
		z M479.3,290.6c0-2.8-2.3-5.1-5.1-5.1c-2.8,0-5.1,2.3-5.1,5.1c0,2.8,2.3,5.1,5.1,5.1C477,295.8,479.3,293.5,479.3,290.6
		L479.3,290.6z M488.6,254.1c0-4.6-3.8-8.4-8.4-8.4h-68.4c-2.2,0-4,1.8-4,4v15.3c0,2.2,1.8,4,4,4h72.8c2.2,0,4-1.8,4-4V254.1z
		 M488.6,254.1"/>
</g>
</svg>
