<?xml version="1.0" encoding="utf-8"?>
<!-- Generator: Adobe Illustrator 22.1.0, SVG Export Plug-In . SVG Version: 6.00 Build 0)  -->
<svg version="1.1" id="Capa_1" xmlns="http://www.w3.org/2000/svg" xmlns:xlink="http://www.w3.org/1999/xlink" x="0px" y="0px"
	 viewBox="0 0 467.3 203" style="enable-background:new 0 0 467.3 203;" xml:space="preserve">
<style type="text/css">
	.st0{fill:#3DB4A9;}
</style>
<g>
	<path class="st0" d="M2.6,199.8c16.5-32.4,33-64.7,49.5-97.1c16.3-32.1,32.5-64.3,48.7-96.5c3-6,3-6.2-3.6-6.2c-29.7,0-59.3,0-89,0
		C0,0,0,0,0,8c0,63.1,0,126.2,0,189.3c0,1.6,0,3.3,0,4.9c0.4,0.1,0.7,0.2,1.1,0.2C1.6,201.6,2.1,200.8,2.6,199.8z"/>
	<path class="st0" d="M312.4,203.3c1.1-1.3,2-2.3,2.8-3.4c10.5-13.8,21.1-27.5,31.4-41.4c2.7-3.7,5.7-5.2,10.3-5.2
		c34.4,0.2,68.8,0.1,103.1,0.1c7,0,7.2-0.2,7.2-7.2c0-46.2,0-92.5,0-138.7c0-7.3-0.2-7.5-7.4-7.5c-47.2,0-94.3,0-141.5,0
		c-6.9,0-7.2,0.3-7.2,7.2c0,63.6,0,127.2,0,190.7C311.3,199.6,310.9,201.3,312.4,203.3z"/>
	<path class="st0" d="M130.6,203c1.5-0.5,2-1.8,2.8-2.8c10.2-13.4,20.7-26.7,30.6-40.4c3.5-4.9,7.4-6.6,13.3-6.5
		c33.8,0.3,67.5,0.1,101.3,0.1c6.8,0,7.1-0.3,7.1-6.8c0-46.5,0-93.1,0-139.6c0-6.6-0.3-6.9-7.1-6.9C231.3,0,184,0,136.7,0
		c-6.7,0-7,0.3-7,6.9c0,63.7,0,127.5,0,191.2C129.7,199.7,129.1,201.5,130.6,203z"/>
</g>
</svg>
