<?xml version="1.0" encoding="utf-8"?>
<!-- Generator: Adobe Illustrator 22.1.0, SVG Export Plug-In . SVG Version: 6.00 Build 0)  -->
<svg version="1.1" id="Layer_1" xmlns="http://www.w3.org/2000/svg" xmlns:xlink="http://www.w3.org/1999/xlink" x="0px" y="0px"
	 viewBox="0 0 841.9 595.3" style="enable-background:new 0 0 841.9 595.3;" xml:space="preserve">
<style type="text/css">
	.st0{fill:#FFFFFF;}
</style>
<g>
	<path class="st0" d="M420.4,330.6h0.1c3.7,0,7.3-1.1,10.3-3l0.8-0.5c0.2-0.1,0.4-0.2,0.5-0.3l9.3-7.7l222.6-183.7
		c-0.5-0.6-1.2-1.1-2.1-1.1H177.6c-0.6,0-1.2,0.2-1.6,0.6l232.9,192C411.8,329.3,416,330.6,420.4,330.6L420.4,330.6z M175,160.3
		v272.3l166.8-134.8L175,160.3z M497.9,298.7l166.7,133.9V161.2L497.9,298.7z M444.9,342.5c-6.6,5.4-15.3,8.5-24.5,8.5
		c-9.2,0-17.8-3-24.5-8.4L357.8,311L175,458.6v0.5c0,1.4,1.2,2.6,2.6,2.6H662c1.4,0,2.6-1.2,2.6-2.6v-0.4L482,311.9L444.9,342.5z
		 M444.9,342.5"/>
</g>
</svg>
