<?xml version="1.0" encoding="utf-8"?>
<!-- Generator: Adobe Illustrator 22.1.0, SVG Export Plug-In . SVG Version: 6.00 Build 0)  -->
<svg version="1.1" id="Capa_1" xmlns="http://www.w3.org/2000/svg" xmlns:xlink="http://www.w3.org/1999/xlink" x="0px" y="0px"
	 viewBox="0 0 500 500" style="enable-background:new 0 0 500 500;" xml:space="preserve">
<style type="text/css">
	.st0{fill:#FFFFFF;}
</style>
<path id="M" class="st0" d="M409.2,368.9l-57.6-231.2c-2.4-9.8-10.9-17-21-17.7c-10.1-0.6-19.5,5.2-23.3,14.6l-58.7,145.2l-46.5-115
	l-19.8-49.3c-0.7-1.7-2.6-2.6-4.3-1.9c-1.7,0.7-2.5,2.6-1.9,4.3l1.7,4.1c0,0,0,0,0,0l24,60c0.5,1.2-0.1,2.6-1.3,3
	c-0.3,0.1-0.6,0.2-0.9,0.2c-0.9,0-1.8-0.6-2.2-1.5L172,120.5c0,0,0,0,0,0l-7.8-19.5c-0.7-1.7-2.6-2.6-4.3-1.9
	c-1.7,0.7-2.5,2.6-1.9,4.3l6.8,16.9l0,0l10.2,25.5c0.5,1.2-0.1,2.6-1.3,3c-0.3,0.1-0.6,0.2-0.9,0.2c-0.9,0-1.8-0.6-2.2-1.5
	l-9.4-23.4c-0.6-1.6-2.6-2.2-4.1-1.4c-5.7,3-10.1,8.4-11.7,14.9L87.9,368.5c-3.1,12.3,3.4,25.6,15.5,29.3
	c12.9,3.9,26.3-3.8,29.5-16.7l40.5-162.2L223,341.5l14.5,36.1c0.5,1.3,1.8,2.1,3.1,2.1c0.4,0,0.8-0.1,1.2-0.2
	c1.7-0.7,2.5-2.6,1.9-4.3l-4.6-11.5c0,0,0,0,0,0l-11.3-28.1c-0.5-1.2,0.1-2.6,1.3-3c1.2-0.5,2.6,0.1,3,1.3l12.6,31.5c0,0,0,0,0,0
	l10.8,26.9c0.5,1.3,1.8,2.1,3.1,2.1c0.4,0,0.8-0.1,1.2-0.2c1.7-0.7,2.5-2.6,1.9-4.3l-9.8-24.4c0,0,0,0,0,0l-7.2-18.1
	c-0.5-1.2,0.1-2.6,1.3-3c1.2-0.5,2.6,0.1,3,1.3l6.3,15.8c0.7,1.6,2.6,2.3,4.2,1.5c3.3-1.7,6.2-4.2,8.3-7.4c1.3-1.9,2.2-3.9,2.9-6
	l52.8-130.6L364,381.1c2.6,10.6,12.2,17.7,22.7,17.7c2.8,0,5.7-0.5,8.5-1.6C406.4,393,412.1,380.5,409.2,368.9z"/>
</svg>
